<?xml version="1.0" encoding="utf-8"?>
<!-- Generator: Adobe Illustrator 18.1.1, SVG Export Plug-In . SVG Version: 6.00 Build 0)  -->
<svg version="1.1" id="Layer_1" xmlns="http://www.w3.org/2000/svg" xmlns:xlink="http://www.w3.org/1999/xlink" x="0px" y="0px"
	 viewBox="0 0 456.5 111.4" enable-background="new 0 0 456.5 111.4" xml:space="preserve">
<g>
	<path fill="#DCDBDB" d="M0.1,8.1c0-1,0.8-1.9,1.9-1.9H43c1.1,0,1.9,0.9,1.9,1.9v10.8c0,1-0.8,1.9-1.9,1.9H15.5v14.3h22.6
		c1,0,1.9,0.9,1.9,1.9v10.8c0,1-0.9,1.9-1.9,1.9H15.5v24.1c0,1-0.9,1.9-1.9,1.9H2c-1.1,0-1.9-0.9-1.9-1.9V8.1z"/>
	<path fill="#DCDBDB" d="M86.4,5.3c19.8,0,35.7,16,35.7,35.8c0,19.8-15.9,35.6-35.7,35.6S50.9,60.9,50.9,41.1
		C50.9,21.2,66.6,5.3,86.4,5.3z M86.4,60.8c10.9,0,19.8-8.9,19.8-19.7c0-10.9-8.9-19.9-19.8-19.9c-10.8,0-19.7,9-19.7,19.9
		C66.7,51.9,75.6,60.8,86.4,60.8z"/>
	<path fill="#DCDBDB" d="M164.7,5.3c19.8,0,35.7,16,35.7,35.8c0,19.8-15.9,35.6-35.7,35.6s-35.6-15.8-35.6-35.6
		C129.1,21.2,144.9,5.3,164.7,5.3z M164.7,60.8c10.9,0,19.8-8.9,19.8-19.7c0-10.9-8.9-19.9-19.8-19.9c-10.8,0-19.7,9-19.7,19.9
		C145,51.9,153.9,60.8,164.7,60.8z"/>
	<path fill="#DCDBDB" d="M220.9,20.8h-14.2c-1.1,0-1.9-0.9-1.9-1.9V8.1c0-1,0.8-1.9,1.9-1.9h44c1.1,0,1.9,0.9,1.9,1.9v10.8
		c0,1-0.8,1.9-1.9,1.9h-14.2v53c0,1-0.9,1.9-1.9,1.9h-11.9c-1,0-1.9-0.9-1.9-1.9V20.8z"/>
	<path fill="#DCDBDB" d="M258.6,66.2l4.7-8.2c0.8-1.3,2.7-1.1,3.4-0.6c0.4,0.2,7.5,5.5,14.1,5.5c4,0,6.8-2.5,6.8-5.9
		c0-4.2-3.5-7.3-10.2-10c-8.5-3.4-19.2-10-19.2-21.9c0-9.8,7.6-19.7,22.9-19.7c10.3,0,18.2,5.3,21.2,7.4c1.2,0.7,1,2.5,0.6,3.2
		l-5.1,7.6c-0.7,1.1-2.5,2-3.4,1.3c-0.9-0.5-8.1-5.9-14.2-5.9c-3.6,0-6.2,2.4-6.2,5.1c0,3.7,3,6.4,10.8,9.6c7.7,3.1,20,9.1,20,22.6
		c0,10.2-8.8,20.5-23.4,20.5c-12.9,0-20-5.4-22.3-7.6C258.1,68,257.8,67.6,258.6,66.2z"/>
	<path fill="#DCDBDB" d="M316.9,8.1c0-1,0.9-1.9,1.9-1.9h11.9c1,0,1.9,0.9,1.9,1.9v65.6c0,1-0.9,1.9-1.9,1.9h-11.9
		c-1,0-1.9-0.9-1.9-1.9V8.1z"/>
	<path fill="#DCDBDB" d="M349.6,8.1c0-1,0.8-1.9,1.9-1.9h41.1c1.1,0,1.9,0.9,1.9,1.9v10.8c0,1-0.8,1.9-1.9,1.9h-27.5v12.3h22.6
		c1,0,1.9,0.9,1.9,1.9v10.8c0,1.1-0.9,1.9-1.9,1.9h-22.6v13.4h27.5c1.1,0,1.9,0.9,1.9,1.9v10.8c0,1-0.8,1.9-1.9,1.9h-41.1
		c-1.1,0-1.9-0.9-1.9-1.9V8.1z"/>
	<path fill="#DCDBDB" d="M403.8,66.2l4.7-8.2c0.8-1.3,2.7-1.1,3.4-0.6c0.4,0.2,7.5,5.5,14.1,5.5c4,0,6.8-2.5,6.8-5.9
		c0-4.2-3.5-7.3-10.2-10c-8.5-3.4-19.2-10-19.2-21.9c0-9.8,7.6-19.7,22.9-19.7c10.3,0,18.2,5.3,21.2,7.4c1.2,0.7,1,2.5,0.6,3.2
		l-5.1,7.6c-0.7,1.1-2.5,2-3.4,1.3c-0.9-0.5-8.1-5.9-14.2-5.9c-3.6,0-6.2,2.4-6.2,5.1c0,3.7,3,6.4,10.8,9.6c7.7,3.1,20,9.1,20,22.6
		c0,10.2-8.8,20.5-23.4,20.5c-12.9,0-20-5.4-22.3-7.6C403.3,68,403,67.6,403.8,66.2z"/>
</g>
<g>
	<path fill="#20C1E9" d="M6.6,2.9c0-1,0.8-1.9,1.9-1.9h41.1c1.1,0,1.9,0.9,1.9,1.9v10.8c0,1-0.8,1.9-1.9,1.9H22.1v14.3h22.6
		c1,0,1.9,0.9,1.9,1.9v10.8c0,1-0.9,1.9-1.9,1.9H22.1v24.1c0,1-0.9,1.9-1.9,1.9H8.5c-1.1,0-1.9-0.9-1.9-1.9V2.9z"/>
	<path fill="#20C1E9" d="M93,0c19.8,0,35.7,16,35.7,35.8c0,19.8-15.9,35.6-35.7,35.6S57.4,55.6,57.4,35.8C57.4,16,73.1,0,93,0z
		 M93,55.5c10.9,0,19.8-8.9,19.8-19.7c0-10.9-8.9-19.9-19.8-19.9c-10.8,0-19.7,9-19.7,19.9C73.2,46.6,82.1,55.5,93,55.5z"/>
	<path fill="#20C1E9" d="M171.2,0c19.8,0,35.7,16,35.7,35.8c0,19.8-15.9,35.6-35.7,35.6s-35.6-15.8-35.6-35.6
		C135.6,16,151.4,0,171.2,0z M171.2,55.5c10.9,0,19.8-8.9,19.8-19.7c0-10.9-8.9-19.9-19.8-19.9c-10.8,0-19.7,9-19.7,19.9
		C151.5,46.6,160.4,55.5,171.2,55.5z"/>
	<path fill="#20C1E9" d="M227.4,15.6h-14.2c-1.1,0-1.9-0.9-1.9-1.9V2.9c0-1,0.8-1.9,1.9-1.9h44c1.1,0,1.9,0.9,1.9,1.9v10.8
		c0,1-0.8,1.9-1.9,1.9h-14.2v53c0,1-0.9,1.9-1.9,1.9h-11.9c-1,0-1.9-0.9-1.9-1.9V15.6z"/>
	<path fill="#20C1E9" d="M265.1,61l4.7-8.2c0.8-1.3,2.7-1.1,3.4-0.6c0.4,0.2,7.5,5.5,14.1,5.5c4,0,6.8-2.5,6.8-5.9
		c0-4.2-3.5-7.3-10.2-10c-8.5-3.4-19.2-10-19.2-21.9c0-9.8,7.6-19.7,22.9-19.7c10.3,0,18.2,5.3,21.2,7.4c1.2,0.7,1,2.5,0.6,3.2
		l-5.1,7.6c-0.7,1.1-2.5,2-3.4,1.3c-0.9-0.5-8.1-5.9-14.2-5.9c-3.6,0-6.2,2.4-6.2,5.1c0,3.7,3,6.4,10.8,9.6c7.7,3.1,20,9.1,20,22.6
		c0,10.2-8.8,20.5-23.4,20.5c-12.9,0-20-5.4-22.3-7.6C264.6,62.8,264.3,62.4,265.1,61z"/>
	<path fill="#20C1E9" d="M323.4,2.9c0-1,0.9-1.9,1.9-1.9h11.9c1,0,1.9,0.9,1.9,1.9v65.6c0,1-0.9,1.9-1.9,1.9h-11.9
		c-1,0-1.9-0.9-1.9-1.9V2.9z"/>
	<path fill="#20C1E9" d="M356.1,2.9c0-1,0.8-1.9,1.9-1.9h41.1c1.1,0,1.9,0.9,1.9,1.9v10.8c0,1-0.8,1.9-1.9,1.9h-27.5v12.3h22.6
		c1,0,1.9,0.9,1.9,1.9v10.8c0,1.1-0.9,1.9-1.9,1.9h-22.6v13.4h27.5c1.1,0,1.9,0.9,1.9,1.9v10.8c0,1-0.8,1.9-1.9,1.9H358
		c-1.1,0-1.9-0.9-1.9-1.9V2.9z"/>
	<path fill="#20C1E9" d="M410.3,61l4.7-8.2c0.8-1.3,2.7-1.1,3.4-0.6c0.4,0.2,7.5,5.5,14.1,5.5c4,0,6.8-2.5,6.8-5.9
		c0-4.2-3.5-7.3-10.2-10c-8.5-3.4-19.2-10-19.2-21.9c0-9.8,7.6-19.7,22.9-19.7c10.3,0,18.2,5.3,21.2,7.4c1.2,0.7,1,2.5,0.6,3.2
		l-5.1,7.6c-0.7,1.1-2.5,2-3.4,1.3c-0.9-0.5-8.1-5.9-14.2-5.9c-3.6,0-6.2,2.4-6.2,5.1c0,3.7,3,6.4,10.8,9.6c7.7,3.1,20,9.1,20,22.6
		c0,10.2-8.8,20.5-23.4,20.5c-12.9,0-20-5.4-22.3-7.6C409.8,62.8,409.5,62.4,410.3,61z"/>
</g>
<g>
	<path fill="#3E3D3E" d="M0,94.3h1.7V92l3.1-0.9v3.1h2.9v2.6H4.8v4.6c0,0.8,0.1,1.4,0.3,1.8c0.2,0.4,0.5,0.5,0.9,0.5
		c0.3,0,0.6,0,0.8-0.1c0.2-0.1,0.5-0.2,0.8-0.3l0.6,2.4c-0.4,0.2-0.9,0.4-1.5,0.5s-1.2,0.2-1.8,0.2c-1.1,0-1.9-0.3-2.4-0.9
		c-0.5-0.6-0.8-1.5-0.8-2.8v-6.1H0V94.3z"/>
	<path fill="#3E3D3E" d="M17,106.3v-6.8c0-1-0.1-1.7-0.4-2.1c-0.3-0.4-0.8-0.6-1.5-0.6c-0.5,0-1,0.2-1.5,0.5
		c-0.4,0.4-0.7,0.8-0.9,1.4v7.7H9.6V89.4h3.1v6.2h0.1c0.4-0.5,0.9-0.9,1.4-1.2c0.6-0.3,1.3-0.5,2.1-0.5c0.6,0,1.1,0.1,1.6,0.2
		c0.5,0.2,0.9,0.4,1.2,0.8c0.3,0.4,0.5,0.9,0.7,1.5c0.2,0.6,0.2,1.4,0.2,2.3v7.5H17z"/>
	<path fill="#3E3D3E" d="M32.4,105.2c-0.5,0.4-1.1,0.7-2,1c-0.8,0.3-1.7,0.4-2.6,0.4c-1.9,0-3.4-0.6-4.3-1.7s-1.3-2.7-1.3-4.7
		c0-2.1,0.5-3.7,1.5-4.8c1-1.1,2.4-1.6,4.3-1.6c0.6,0,1.2,0.1,1.8,0.2s1.1,0.4,1.5,0.8c0.4,0.4,0.8,0.9,1.1,1.5
		c0.3,0.6,0.4,1.4,0.4,2.3c0,0.3,0,0.7-0.1,1.1c0,0.4-0.1,0.8-0.2,1.2h-7.2c0,1,0.3,1.8,0.8,2.3c0.5,0.5,1.2,0.8,2.3,0.8
		c0.7,0,1.2-0.1,1.8-0.3c0.5-0.2,0.9-0.4,1.2-0.6L32.4,105.2z M27.9,96.4c-0.8,0-1.4,0.2-1.8,0.7s-0.6,1.1-0.7,2h4.5
		c0.1-0.9-0.1-1.5-0.4-2C29.1,96.6,28.6,96.4,27.9,96.4z"/>
	<path fill="#3E3D3E" d="M44,94.3v6.8c0,1,0.1,1.7,0.3,2.1c0.2,0.4,0.7,0.6,1.4,0.6c0.6,0,1.1-0.2,1.5-0.5c0.4-0.4,0.7-0.8,0.9-1.3
		v-7.8h3.1v8.4c0,0.7,0,1.3,0.1,1.9c0.1,0.6,0.2,1.2,0.3,1.7h-2.4l-0.6-1.8h-0.1c-0.4,0.6-0.9,1.1-1.5,1.5s-1.4,0.6-2.3,0.6
		c-0.6,0-1.2-0.1-1.6-0.2c-0.5-0.2-0.9-0.4-1.2-0.8c-0.3-0.4-0.6-0.9-0.7-1.5c-0.2-0.6-0.3-1.4-0.3-2.4v-7.5H44z"/>
	<path fill="#3E3D3E" d="M61.3,106.3v-6.8c0-1-0.1-1.7-0.4-2.1c-0.3-0.4-0.8-0.6-1.4-0.6c-0.6,0-1.1,0.2-1.5,0.5
		c-0.4,0.3-0.7,0.8-0.9,1.3v7.8H54v-12h2.5l0.4,1.6h0.1c0.4-0.5,0.9-1,1.5-1.3c0.6-0.4,1.4-0.6,2.4-0.6c0.6,0,1.1,0.1,1.6,0.2
		s0.9,0.4,1.2,0.8c0.3,0.4,0.6,0.9,0.7,1.5s0.2,1.4,0.2,2.3v7.5H61.3z"/>
	<path fill="#3E3D3E" d="M66.5,100.3c0-2,0.5-3.6,1.5-4.7c1-1.1,2.4-1.6,4.2-1.6c1,0,1.8,0.2,2.5,0.5c0.7,0.3,1.3,0.7,1.8,1.3
		c0.5,0.6,0.8,1.2,1,2c0.2,0.8,0.3,1.7,0.3,2.6c0,2-0.5,3.6-1.5,4.7c-1,1.1-2.4,1.6-4.2,1.6c-1,0-1.8-0.2-2.5-0.5
		c-0.7-0.3-1.3-0.7-1.8-1.3c-0.5-0.6-0.8-1.2-1.1-2S66.5,101.2,66.5,100.3z M69.7,100.3c0,0.5,0,1,0.1,1.5c0.1,0.4,0.2,0.8,0.4,1.2
		c0.2,0.3,0.4,0.6,0.8,0.8c0.3,0.2,0.7,0.3,1.1,0.3c0.8,0,1.4-0.3,1.8-0.9c0.4-0.6,0.6-1.5,0.6-2.8c0-1.1-0.2-2-0.6-2.7
		c-0.4-0.7-1-1-1.9-1c-0.8,0-1.4,0.3-1.8,0.9S69.7,98.9,69.7,100.3z"/>
	<path fill="#3E3D3E" d="M78.6,94.3h1.7v-0.7c0-1.5,0.3-2.6,1-3.3c0.6-0.7,1.6-1,2.8-1c1.3,0,2.3,0.2,3.2,0.5l-0.6,2.5
		c-0.4-0.1-0.7-0.2-1-0.3s-0.6-0.1-0.9-0.1c-0.3,0-0.6,0-0.8,0.1c-0.2,0.1-0.3,0.2-0.4,0.4s-0.1,0.4-0.2,0.7s0,0.6,0,1H86v2.6h-2.6
		v9.4h-3.1v-9.4h-1.7V94.3z"/>
	<path fill="#3E3D3E" d="M97.9,94.3v12h-3.1v-9.4h-3.6v9.4H88v-9.4h-1.7v-2.6H88v-0.7c0-1.5,0.4-2.6,1.2-3.3c0.8-0.7,1.9-1,3.4-1
		c1.1,0,2.1,0.1,2.9,0.3c0.9,0.2,1.6,0.4,2.1,0.7l-0.8,2.4c-0.4-0.2-0.9-0.4-1.5-0.5c-0.6-0.1-1.2-0.2-2-0.2c-0.5,0-0.8,0.1-1.1,0.2
		c-0.3,0.1-0.5,0.3-0.7,0.5c-0.2,0.2-0.3,0.5-0.3,0.8c0,0.3-0.1,0.6-0.1,1H97.9z"/>
	<path fill="#3E3D3E" d="M109.2,105.5c-0.5,0.4-1.1,0.6-1.7,0.8c-0.7,0.2-1.4,0.3-2.1,0.3c-1,0-1.8-0.2-2.4-0.5
		c-0.7-0.3-1.2-0.7-1.6-1.3c-0.4-0.6-0.7-1.2-0.9-2c-0.2-0.8-0.3-1.7-0.3-2.6c0-2,0.5-3.6,1.4-4.7c0.9-1.1,2.2-1.6,4-1.6
		c0.9,0,1.6,0.1,2.1,0.2s1,0.3,1.5,0.6l-0.7,2.5c-0.4-0.2-0.7-0.3-1.1-0.4c-0.4-0.1-0.8-0.1-1.2-0.1c-0.9,0-1.5,0.3-2,0.9
		c-0.4,0.6-0.7,1.5-0.7,2.7c0,0.5,0.1,1,0.2,1.4c0.1,0.4,0.3,0.8,0.5,1.1c0.2,0.3,0.5,0.6,0.9,0.8c0.4,0.2,0.8,0.3,1.3,0.3
		c0.5,0,1-0.1,1.3-0.2c0.4-0.1,0.7-0.3,1-0.5L109.2,105.5z"/>
	<path fill="#3E3D3E" d="M111,90.9c0-0.5,0.2-0.9,0.5-1.2c0.3-0.3,0.8-0.5,1.4-0.5s1.1,0.2,1.5,0.5c0.4,0.3,0.6,0.7,0.6,1.2
		s-0.2,0.9-0.6,1.2s-0.9,0.5-1.5,0.5s-1.1-0.2-1.4-0.5S111,91.3,111,90.9z M111.4,94.3h3.1v12h-3.1V94.3z"/>
	<path fill="#3E3D3E" d="M117.5,94.9c0.6-0.3,1.4-0.5,2.3-0.7c0.9-0.2,1.8-0.3,2.8-0.3c0.8,0,1.5,0.1,2.1,0.3c0.6,0.2,1,0.5,1.3,0.9
		c0.3,0.4,0.6,0.8,0.7,1.3c0.1,0.5,0.2,1.1,0.2,1.7c0,0.7,0,1.4-0.1,2.1c0,0.7-0.1,1.4-0.1,2.1c0,0.7,0,1.4,0.1,2
		c0,0.6,0.2,1.3,0.4,1.8h-2.5l-0.5-1.7H124c-0.3,0.5-0.8,0.9-1.3,1.3c-0.6,0.4-1.3,0.5-2.2,0.5c-0.6,0-1.1-0.1-1.5-0.3
		c-0.4-0.2-0.8-0.4-1.2-0.7s-0.6-0.7-0.7-1.1c-0.2-0.4-0.3-0.9-0.3-1.4c0-0.7,0.2-1.4,0.5-1.9c0.3-0.5,0.8-0.9,1.4-1.2
		c0.6-0.3,1.4-0.5,2.2-0.6c0.9-0.1,1.8-0.2,2.9-0.1c0.1-0.9,0-1.5-0.2-1.9c-0.2-0.4-0.8-0.6-1.6-0.6c-0.6,0-1.3,0.1-2,0.2
		c-0.7,0.1-1.3,0.3-1.7,0.5L117.5,94.9z M121.5,103.9c0.6,0,1.1-0.1,1.5-0.4c0.4-0.3,0.6-0.6,0.8-0.9V101c-0.5,0-1-0.1-1.4,0
		c-0.5,0-0.9,0.1-1.2,0.2c-0.4,0.1-0.6,0.3-0.8,0.5s-0.3,0.5-0.3,0.8c0,0.4,0.1,0.8,0.4,1C120.7,103.8,121,103.9,121.5,103.9z"/>
	<path fill="#3E3D3E" d="M132.7,102.2c0,0.6,0.1,1,0.2,1.2c0.1,0.3,0.4,0.4,0.7,0.4c0.2,0,0.4,0,0.6,0c0.2,0,0.4-0.1,0.7-0.2
		l0.3,2.5c-0.3,0.1-0.6,0.3-1.2,0.4c-0.5,0.1-1.1,0.2-1.6,0.2c-0.9,0-1.6-0.2-2.1-0.6c-0.5-0.4-0.7-1.1-0.7-2.1V89.4h3.1V102.2z"/>
	<path fill="#3E3D3E" d="M139.8,102.2c0,0.6,0.1,1,0.2,1.2c0.1,0.3,0.4,0.4,0.7,0.4c0.2,0,0.4,0,0.6,0c0.2,0,0.4-0.1,0.7-0.2
		l0.3,2.5c-0.3,0.1-0.6,0.3-1.2,0.4c-0.5,0.1-1.1,0.2-1.6,0.2c-0.9,0-1.6-0.2-2.1-0.6c-0.5-0.4-0.7-1.1-0.7-2.1V89.4h3.1V102.2z"/>
	<path fill="#3E3D3E" d="M148,101l0.4,1.9h0.1l0.3-1.9l1.8-6.7h3.2l-3.7,10.8c-0.3,0.9-0.6,1.7-0.9,2.5s-0.6,1.4-0.9,1.9
		c-0.3,0.5-0.7,1-1.1,1.3c-0.4,0.3-0.9,0.4-1.5,0.4c-0.8,0-1.5-0.1-2-0.4l0.6-2.5c0.2,0.1,0.5,0.1,0.7,0.1c0.4,0,0.7-0.2,1.1-0.5
		s0.6-0.9,0.8-1.7l-5-12h3.8L148,101z"/>
	<path fill="#3E3D3E" d="M159.8,100.3c0-2,0.5-3.6,1.5-4.7c1-1.1,2.4-1.6,4.2-1.6c1,0,1.8,0.2,2.5,0.5c0.7,0.3,1.3,0.7,1.8,1.3
		c0.5,0.6,0.8,1.2,1,2c0.2,0.8,0.3,1.7,0.3,2.6c0,2-0.5,3.6-1.5,4.7c-1,1.1-2.4,1.6-4.2,1.6c-1,0-1.8-0.2-2.5-0.5
		c-0.7-0.3-1.3-0.7-1.8-1.3c-0.5-0.6-0.8-1.2-1.1-2S159.8,101.2,159.8,100.3z M163,100.3c0,0.5,0,1,0.1,1.5c0.1,0.4,0.2,0.8,0.4,1.2
		c0.2,0.3,0.4,0.6,0.8,0.8c0.3,0.2,0.7,0.3,1.1,0.3c0.8,0,1.4-0.3,1.8-0.9c0.4-0.6,0.6-1.5,0.6-2.8c0-1.1-0.2-2-0.6-2.7
		c-0.4-0.7-1-1-1.9-1c-0.8,0-1.4,0.3-1.8,0.9S163,98.9,163,100.3z"/>
	<path fill="#3E3D3E" d="M171.9,94.3h1.7v-0.7c0-1.5,0.3-2.6,1-3.3c0.6-0.7,1.6-1,2.8-1c1.3,0,2.3,0.2,3.2,0.5l-0.6,2.5
		c-0.4-0.1-0.7-0.2-1-0.3s-0.6-0.1-0.9-0.1c-0.3,0-0.6,0-0.8,0.1c-0.2,0.1-0.3,0.2-0.4,0.4s-0.1,0.4-0.2,0.7s0,0.6,0,1h2.6v2.6h-2.6
		v9.4h-3.1v-9.4h-1.7V94.3z"/>
	<path fill="#3E3D3E" d="M191.2,94.3v12H188v-9.4h-3.6v9.4h-3.1v-9.4h-1.7v-2.6h1.7v-0.7c0-1.5,0.4-2.6,1.2-3.3c0.8-0.7,1.9-1,3.4-1
		c1.1,0,2.1,0.1,2.9,0.3c0.9,0.2,1.6,0.4,2.1,0.7l-0.8,2.4c-0.4-0.2-0.9-0.4-1.5-0.5c-0.6-0.1-1.2-0.2-2-0.2c-0.5,0-0.8,0.1-1.1,0.2
		c-0.3,0.1-0.5,0.3-0.7,0.5c-0.2,0.2-0.3,0.5-0.3,0.8c0,0.3-0.1,0.6-0.1,1H191.2z"/>
	<path fill="#3E3D3E" d="M202.5,105.5c-0.5,0.4-1.1,0.6-1.7,0.8c-0.7,0.2-1.4,0.3-2.1,0.3c-1,0-1.8-0.2-2.4-0.5
		c-0.7-0.3-1.2-0.7-1.6-1.3c-0.4-0.6-0.7-1.2-0.9-2c-0.2-0.8-0.3-1.7-0.3-2.6c0-2,0.5-3.6,1.4-4.7c0.9-1.1,2.2-1.6,4-1.6
		c0.9,0,1.6,0.1,2.1,0.2s1,0.3,1.5,0.6l-0.7,2.5c-0.4-0.2-0.7-0.3-1.1-0.4c-0.4-0.1-0.8-0.1-1.2-0.1c-0.9,0-1.5,0.3-2,0.9
		c-0.4,0.6-0.7,1.5-0.7,2.7c0,0.5,0.1,1,0.2,1.4c0.1,0.4,0.3,0.8,0.5,1.1c0.2,0.3,0.5,0.6,0.9,0.8c0.4,0.2,0.8,0.3,1.3,0.3
		c0.5,0,1-0.1,1.3-0.2c0.4-0.1,0.7-0.3,1-0.5L202.5,105.5z"/>
	<path fill="#3E3D3E" d="M204.2,90.9c0-0.5,0.2-0.9,0.5-1.2c0.3-0.3,0.8-0.5,1.4-0.5s1.1,0.2,1.5,0.5c0.4,0.3,0.6,0.7,0.6,1.2
		s-0.2,0.9-0.6,1.2s-0.9,0.5-1.5,0.5s-1.1-0.2-1.4-0.5S204.2,91.3,204.2,90.9z M204.7,94.3h3.1v12h-3.1V94.3z"/>
	<path fill="#3E3D3E" d="M210.8,94.9c0.6-0.3,1.4-0.5,2.3-0.7c0.9-0.2,1.8-0.3,2.8-0.3c0.8,0,1.5,0.1,2.1,0.3c0.6,0.2,1,0.5,1.3,0.9
		c0.3,0.4,0.6,0.8,0.7,1.3c0.1,0.5,0.2,1.1,0.2,1.7c0,0.7,0,1.4-0.1,2.1c0,0.7-0.1,1.4-0.1,2.1c0,0.7,0,1.4,0.1,2
		c0,0.6,0.2,1.3,0.4,1.8h-2.5l-0.5-1.7h-0.1c-0.3,0.5-0.8,0.9-1.3,1.3c-0.6,0.4-1.3,0.5-2.2,0.5c-0.6,0-1.1-0.1-1.5-0.3
		c-0.4-0.2-0.8-0.4-1.2-0.7s-0.6-0.7-0.7-1.1c-0.2-0.4-0.3-0.9-0.3-1.4c0-0.7,0.2-1.4,0.5-1.9c0.3-0.5,0.8-0.9,1.4-1.2
		c0.6-0.3,1.4-0.5,2.2-0.6c0.9-0.1,1.8-0.2,2.9-0.1c0.1-0.9,0-1.5-0.2-1.9c-0.2-0.4-0.8-0.6-1.6-0.6c-0.6,0-1.3,0.1-2,0.2
		c-0.7,0.1-1.3,0.3-1.7,0.5L210.8,94.9z M214.8,103.9c0.6,0,1.1-0.1,1.5-0.4c0.4-0.3,0.6-0.6,0.8-0.9V101c-0.5,0-1-0.1-1.4,0
		c-0.5,0-0.9,0.1-1.2,0.2c-0.4,0.1-0.6,0.3-0.8,0.5s-0.3,0.5-0.3,0.8c0,0.4,0.1,0.8,0.4,1C213.9,103.8,214.3,103.9,214.8,103.9z"/>
	<path fill="#3E3D3E" d="M226,102.2c0,0.6,0.1,1,0.2,1.2c0.1,0.3,0.4,0.4,0.7,0.4c0.2,0,0.4,0,0.6,0c0.2,0,0.4-0.1,0.7-0.2l0.3,2.5
		c-0.3,0.1-0.6,0.3-1.2,0.4c-0.5,0.1-1.1,0.2-1.6,0.2c-0.9,0-1.6-0.2-2.1-0.6c-0.5-0.4-0.7-1.1-0.7-2.1V89.4h3.1V102.2z"/>
	<path fill="#3E3D3E" d="M234.8,94.3h1.7v-0.7c0-1.5,0.3-2.6,1-3.3c0.6-0.7,1.6-1,2.8-1c1.3,0,2.3,0.2,3.2,0.5l-0.6,2.5
		c-0.4-0.1-0.7-0.2-1-0.3s-0.6-0.1-0.9-0.1c-0.3,0-0.6,0-0.8,0.1c-0.2,0.1-0.3,0.2-0.4,0.4s-0.1,0.4-0.2,0.7s0,0.6,0,1h2.6v2.6h-2.6
		v9.4h-3.1v-9.4h-1.7V94.3z"/>
	<path fill="#3E3D3E" d="M243,100.3c0-2,0.5-3.6,1.5-4.7c1-1.1,2.4-1.6,4.2-1.6c1,0,1.8,0.2,2.5,0.5c0.7,0.3,1.3,0.7,1.8,1.3
		c0.5,0.6,0.8,1.2,1,2c0.2,0.8,0.3,1.7,0.3,2.6c0,2-0.5,3.6-1.5,4.7c-1,1.1-2.4,1.6-4.2,1.6c-1,0-1.8-0.2-2.5-0.5
		c-0.7-0.3-1.3-0.7-1.8-1.3c-0.5-0.6-0.8-1.2-1.1-2S243,101.2,243,100.3z M246.2,100.3c0,0.5,0,1,0.1,1.5c0.1,0.4,0.2,0.8,0.4,1.2
		c0.2,0.3,0.4,0.6,0.8,0.8c0.3,0.2,0.7,0.3,1.1,0.3c0.8,0,1.4-0.3,1.8-0.9c0.4-0.6,0.6-1.5,0.6-2.8c0-1.1-0.2-2-0.6-2.7
		c-0.4-0.7-1-1-1.9-1c-0.8,0-1.4,0.3-1.8,0.9S246.2,98.9,246.2,100.3z"/>
	<path fill="#3E3D3E" d="M255.9,100.3c0-2,0.5-3.6,1.5-4.7c1-1.1,2.4-1.6,4.2-1.6c1,0,1.8,0.2,2.5,0.5c0.7,0.3,1.3,0.7,1.8,1.3
		c0.5,0.6,0.8,1.2,1,2c0.2,0.8,0.3,1.7,0.3,2.6c0,2-0.5,3.6-1.5,4.7c-1,1.1-2.4,1.6-4.2,1.6c-1,0-1.8-0.2-2.5-0.5
		c-0.7-0.3-1.3-0.7-1.8-1.3c-0.5-0.6-0.8-1.2-1.1-2S255.9,101.2,255.9,100.3z M259.1,100.3c0,0.5,0,1,0.1,1.5
		c0.1,0.4,0.2,0.8,0.4,1.2c0.2,0.3,0.4,0.6,0.8,0.8c0.3,0.2,0.7,0.3,1.1,0.3c0.8,0,1.4-0.3,1.8-0.9c0.4-0.6,0.6-1.5,0.6-2.8
		c0-1.1-0.2-2-0.6-2.7c-0.4-0.7-1-1-1.9-1c-0.8,0-1.4,0.3-1.8,0.9S259.1,98.9,259.1,100.3z"/>
	<path fill="#3E3D3E" d="M268.1,94.3h1.7V92l3.1-0.9v3.1h2.9v2.6h-2.9v4.6c0,0.8,0.1,1.4,0.3,1.8c0.2,0.4,0.5,0.5,0.9,0.5
		c0.3,0,0.6,0,0.8-0.1c0.2-0.1,0.5-0.2,0.8-0.3l0.6,2.4c-0.4,0.2-0.9,0.4-1.5,0.5s-1.2,0.2-1.8,0.2c-1.1,0-1.9-0.3-2.4-0.9
		c-0.5-0.6-0.8-1.5-0.8-2.8v-6.1h-1.7V94.3z"/>
	<path fill="#3E3D3E" d="M292.4,105.5c-0.5,0.4-1.1,0.6-1.7,0.8c-0.7,0.2-1.4,0.3-2.1,0.3c-1,0-1.8-0.2-2.4-0.5
		c-0.7-0.3-1.2-0.7-1.6-1.3c-0.4-0.6-0.7-1.2-0.9-2c-0.2-0.8-0.3-1.7-0.3-2.6c0-2,0.5-3.6,1.4-4.7c0.9-1.1,2.2-1.6,4-1.6
		c0.9,0,1.6,0.1,2.1,0.2s1,0.3,1.5,0.6l-0.7,2.5c-0.4-0.2-0.7-0.3-1.1-0.4c-0.4-0.1-0.8-0.1-1.2-0.1c-0.9,0-1.5,0.3-2,0.9
		c-0.4,0.6-0.7,1.5-0.7,2.7c0,0.5,0.1,1,0.2,1.4c0.1,0.4,0.3,0.8,0.5,1.1c0.2,0.3,0.5,0.6,0.9,0.8c0.4,0.2,0.8,0.3,1.3,0.3
		c0.5,0,1-0.1,1.3-0.2c0.4-0.1,0.7-0.3,1-0.5L292.4,105.5z"/>
	<path fill="#3E3D3E" d="M294.2,94.9c0.6-0.3,1.4-0.5,2.3-0.7c0.9-0.2,1.8-0.3,2.8-0.3c0.8,0,1.5,0.1,2.1,0.3c0.6,0.2,1,0.5,1.3,0.9
		c0.3,0.4,0.6,0.8,0.7,1.3c0.1,0.5,0.2,1.1,0.2,1.7c0,0.7,0,1.4-0.1,2.1c0,0.7-0.1,1.4-0.1,2.1c0,0.7,0,1.4,0.1,2
		c0,0.6,0.2,1.3,0.4,1.8h-2.5l-0.5-1.7h-0.1c-0.3,0.5-0.8,0.9-1.3,1.3c-0.6,0.4-1.3,0.5-2.2,0.5c-0.6,0-1.1-0.1-1.5-0.3
		c-0.4-0.2-0.8-0.4-1.2-0.7s-0.6-0.7-0.7-1.1c-0.2-0.4-0.3-0.9-0.3-1.4c0-0.7,0.2-1.4,0.5-1.9c0.3-0.5,0.8-0.9,1.4-1.2
		c0.6-0.3,1.4-0.5,2.2-0.6c0.9-0.1,1.8-0.2,2.9-0.1c0.1-0.9,0-1.5-0.2-1.9c-0.2-0.4-0.8-0.6-1.6-0.6c-0.6,0-1.3,0.1-2,0.2
		c-0.7,0.1-1.3,0.3-1.7,0.5L294.2,94.9z M298.1,103.9c0.6,0,1.1-0.1,1.5-0.4c0.4-0.3,0.6-0.6,0.8-0.9V101c-0.5,0-1-0.1-1.4,0
		c-0.5,0-0.9,0.1-1.2,0.2c-0.4,0.1-0.6,0.3-0.8,0.5s-0.3,0.5-0.3,0.8c0,0.4,0.1,0.8,0.4,1C297.3,103.8,297.7,103.9,298.1,103.9z"/>
	<path fill="#3E3D3E" d="M312.8,97.2c-0.5-0.2-0.9-0.3-1.3-0.3c-0.6,0-1,0.1-1.4,0.4c-0.4,0.3-0.6,0.7-0.8,1.1v7.8h-3.1v-12h2.4
		l0.4,1.6h0.1c0.3-0.6,0.6-1,1.1-1.4s1-0.5,1.6-0.5c0.4,0,0.9,0.1,1.4,0.3L312.8,97.2z"/>
	<path fill="#3E3D3E" d="M324.8,102c0,0.7,0,1.3,0,2s0.1,1.4,0.2,2.2h-2.2l-0.4-1.6h-0.1c-0.3,0.6-0.8,1-1.4,1.4
		c-0.6,0.3-1.3,0.5-2.1,0.5c-1.5,0-2.7-0.5-3.5-1.5c-0.8-1-1.3-2.5-1.3-4.7c0-2.1,0.5-3.6,1.4-4.8s2.3-1.7,4.1-1.7
		c0.5,0,0.9,0,1.2,0.1c0.3,0.1,0.6,0.1,1,0.3v-4.9h3.1V102z M319.5,104c0.6,0,1.1-0.1,1.4-0.4c0.4-0.3,0.6-0.7,0.7-1.3v-5.1
		c-0.2-0.2-0.5-0.3-0.7-0.4c-0.3-0.1-0.6-0.1-1.1-0.1c-0.9,0-1.5,0.3-2,0.9c-0.4,0.6-0.7,1.6-0.7,3.1c0,1,0.2,1.9,0.5,2.5
		C318.2,103.7,318.7,104,319.5,104z"/>
	<path fill="#3E3D3E" d="M327.4,90.9c0-0.5,0.2-0.9,0.5-1.2c0.3-0.3,0.8-0.5,1.4-0.5s1.1,0.2,1.5,0.5c0.4,0.3,0.6,0.7,0.6,1.2
		s-0.2,0.9-0.6,1.2s-0.9,0.5-1.5,0.5s-1.1-0.2-1.4-0.5S327.4,91.3,327.4,90.9z M327.9,94.3h3.1v12h-3.1V94.3z"/>
	<path fill="#3E3D3E" d="M344.2,106.3c0,1.7-0.5,3-1.4,3.9c-0.9,0.8-2.3,1.2-4,1.2c-1.2,0-2.1-0.1-2.7-0.2s-1.2-0.3-1.5-0.5l0.6-2.5
		c0.4,0.1,0.8,0.3,1.3,0.4c0.5,0.1,1.1,0.2,1.8,0.2c1.1,0,1.8-0.2,2.2-0.7c0.4-0.5,0.6-1.1,0.6-2v-0.8h-0.1c-0.6,0.8-1.6,1.1-3,1.1
		c-1.6,0-2.7-0.5-3.5-1.4c-0.8-1-1.1-2.5-1.1-4.5c0-2.1,0.5-3.8,1.5-4.9c1-1.1,2.5-1.7,4.5-1.7c1,0,1.9,0.1,2.8,0.2
		c0.8,0.1,1.5,0.3,2,0.5V106.3z M338.9,104c0.6,0,1.1-0.1,1.4-0.4c0.3-0.3,0.6-0.7,0.8-1.2v-5.4c-0.5-0.2-1.1-0.3-1.9-0.3
		c-0.8,0-1.4,0.3-1.9,0.9c-0.4,0.6-0.7,1.6-0.7,2.9c0,1.2,0.2,2.1,0.6,2.7S338.2,104,338.9,104z"/>
	<path fill="#3E3D3E" d="M346.9,94.9c0.6-0.3,1.4-0.5,2.3-0.7c0.9-0.2,1.8-0.3,2.8-0.3c0.8,0,1.5,0.1,2.1,0.3c0.6,0.2,1,0.5,1.3,0.9
		c0.3,0.4,0.6,0.8,0.7,1.3c0.1,0.5,0.2,1.1,0.2,1.7c0,0.7,0,1.4-0.1,2.1c0,0.7-0.1,1.4-0.1,2.1c0,0.7,0,1.4,0.1,2
		c0,0.6,0.2,1.3,0.4,1.8H354l-0.5-1.7h-0.1c-0.3,0.5-0.8,0.9-1.3,1.3c-0.6,0.4-1.3,0.5-2.2,0.5c-0.6,0-1.1-0.1-1.5-0.3
		c-0.4-0.2-0.8-0.4-1.2-0.7s-0.6-0.7-0.7-1.1c-0.2-0.4-0.3-0.9-0.3-1.4c0-0.7,0.2-1.4,0.5-1.9c0.3-0.5,0.8-0.9,1.4-1.2
		c0.6-0.3,1.4-0.5,2.2-0.6c0.9-0.1,1.8-0.2,2.9-0.1c0.1-0.9,0-1.5-0.2-1.9c-0.2-0.4-0.8-0.6-1.6-0.6c-0.6,0-1.3,0.1-2,0.2
		c-0.7,0.1-1.3,0.3-1.7,0.5L346.9,94.9z M350.8,103.9c0.6,0,1.1-0.1,1.5-0.4c0.4-0.3,0.6-0.6,0.8-0.9V101c-0.5,0-1-0.1-1.4,0
		c-0.5,0-0.9,0.1-1.2,0.2c-0.4,0.1-0.6,0.3-0.8,0.5s-0.3,0.5-0.3,0.8c0,0.4,0.1,0.8,0.4,1C350,103.8,350.4,103.9,350.8,103.9z"/>
	<path fill="#3E3D3E" d="M366.2,106.3v-6.8c0-1-0.1-1.7-0.4-2.1c-0.3-0.4-0.8-0.6-1.4-0.6c-0.6,0-1.1,0.2-1.5,0.5
		c-0.4,0.3-0.7,0.8-0.9,1.3v7.8h-3.1v-12h2.5l0.4,1.6h0.1c0.4-0.5,0.9-1,1.5-1.3c0.6-0.4,1.4-0.6,2.4-0.6c0.6,0,1.1,0.1,1.6,0.2
		s0.9,0.4,1.2,0.8c0.3,0.4,0.6,0.9,0.7,1.5s0.2,1.4,0.2,2.3v7.5H366.2z"/>
	<path fill="#3E3D3E" d="M378,94.3h2.3l0.4,1.4h0.1c0.4-0.6,0.9-1.1,1.5-1.3c0.6-0.3,1.3-0.4,2.1-0.4c1.5,0,2.6,0.5,3.4,1.4
		c0.8,1,1.1,2.5,1.1,4.6c0,1-0.1,2-0.4,2.8c-0.2,0.8-0.6,1.5-1.1,2.1s-1,1-1.7,1.3c-0.7,0.3-1.5,0.5-2.3,0.5c-0.5,0-0.9,0-1.2-0.1
		c-0.3-0.1-0.6-0.2-1-0.3v4.9H378V94.3z M383.4,96.6c-0.6,0-1.1,0.2-1.4,0.5c-0.3,0.3-0.6,0.8-0.8,1.4v5c0.2,0.2,0.5,0.3,0.7,0.4
		c0.3,0.1,0.6,0.2,1,0.2c0.9,0,1.6-0.3,2-1c0.4-0.6,0.7-1.7,0.7-3.1c0-1.1-0.2-1.9-0.5-2.5S384.2,96.6,383.4,96.6z"/>
	<path fill="#3E3D3E" d="M390.4,100.3c0-2,0.5-3.6,1.5-4.7c1-1.1,2.4-1.6,4.2-1.6c1,0,1.8,0.2,2.5,0.5c0.7,0.3,1.3,0.7,1.8,1.3
		c0.5,0.6,0.8,1.2,1,2c0.2,0.8,0.3,1.7,0.3,2.6c0,2-0.5,3.6-1.5,4.7c-1,1.1-2.4,1.6-4.2,1.6c-1,0-1.8-0.2-2.5-0.5
		c-0.7-0.3-1.3-0.7-1.8-1.3c-0.5-0.6-0.8-1.2-1.1-2S390.4,101.2,390.4,100.3z M393.7,100.3c0,0.5,0,1,0.1,1.5
		c0.1,0.4,0.2,0.8,0.4,1.2c0.2,0.3,0.4,0.6,0.8,0.8c0.3,0.2,0.7,0.3,1.1,0.3c0.8,0,1.4-0.3,1.8-0.9c0.4-0.6,0.6-1.5,0.6-2.8
		c0-1.1-0.2-2-0.6-2.7c-0.4-0.7-1-1-1.9-1c-0.8,0-1.4,0.3-1.8,0.9S393.7,98.9,393.7,100.3z"/>
	<path fill="#3E3D3E" d="M414.2,102c0,0.7,0,1.3,0,2s0.1,1.4,0.2,2.2h-2.2l-0.4-1.6h-0.1c-0.3,0.6-0.8,1-1.4,1.4
		c-0.6,0.3-1.3,0.5-2.1,0.5c-1.5,0-2.7-0.5-3.5-1.5c-0.8-1-1.3-2.5-1.3-4.7c0-2.1,0.5-3.6,1.4-4.8s2.3-1.7,4.1-1.7
		c0.5,0,0.9,0,1.2,0.1c0.3,0.1,0.6,0.1,1,0.3v-4.9h3.1V102z M408.8,104c0.6,0,1.1-0.1,1.4-0.4c0.4-0.3,0.6-0.7,0.7-1.3v-5.1
		c-0.2-0.2-0.5-0.3-0.7-0.4c-0.3-0.1-0.6-0.1-1.1-0.1c-0.9,0-1.5,0.3-2,0.9c-0.4,0.6-0.7,1.6-0.7,3.1c0,1,0.2,1.9,0.5,2.5
		C407.5,103.7,408.1,104,408.8,104z"/>
	<path fill="#3E3D3E" d="M425.4,105.5c-0.5,0.4-1.1,0.6-1.7,0.8c-0.7,0.2-1.4,0.3-2.1,0.3c-1,0-1.8-0.2-2.4-0.5
		c-0.7-0.3-1.2-0.7-1.6-1.3c-0.4-0.6-0.7-1.2-0.9-2c-0.2-0.8-0.3-1.7-0.3-2.6c0-2,0.5-3.6,1.4-4.7c0.9-1.1,2.2-1.6,4-1.6
		c0.9,0,1.6,0.1,2.1,0.2s1,0.3,1.5,0.6l-0.7,2.5c-0.4-0.2-0.7-0.3-1.1-0.4c-0.4-0.1-0.8-0.1-1.2-0.1c-0.9,0-1.5,0.3-2,0.9
		c-0.4,0.6-0.7,1.5-0.7,2.7c0,0.5,0.1,1,0.2,1.4c0.1,0.4,0.3,0.8,0.5,1.1c0.2,0.3,0.5,0.6,0.9,0.8c0.4,0.2,0.8,0.3,1.3,0.3
		c0.5,0,1-0.1,1.3-0.2c0.4-0.1,0.7-0.3,1-0.5L425.4,105.5z"/>
	<path fill="#3E3D3E" d="M427.2,94.9c0.6-0.3,1.4-0.5,2.3-0.7c0.9-0.2,1.8-0.3,2.8-0.3c0.8,0,1.5,0.1,2.1,0.3c0.6,0.2,1,0.5,1.3,0.9
		c0.3,0.4,0.6,0.8,0.7,1.3c0.1,0.5,0.2,1.1,0.2,1.7c0,0.7,0,1.4-0.1,2.1c0,0.7-0.1,1.4-0.1,2.1c0,0.7,0,1.4,0.1,2
		c0,0.6,0.2,1.3,0.4,1.8h-2.5l-0.5-1.7h-0.1c-0.3,0.5-0.8,0.9-1.3,1.3c-0.6,0.4-1.3,0.5-2.2,0.5c-0.6,0-1.1-0.1-1.5-0.3
		c-0.4-0.2-0.8-0.4-1.2-0.7s-0.6-0.7-0.7-1.1c-0.2-0.4-0.3-0.9-0.3-1.4c0-0.7,0.2-1.4,0.5-1.9c0.3-0.5,0.8-0.9,1.4-1.2
		c0.6-0.3,1.4-0.5,2.2-0.6c0.9-0.1,1.8-0.2,2.9-0.1c0.1-0.9,0-1.5-0.2-1.9c-0.2-0.4-0.8-0.6-1.6-0.6c-0.6,0-1.3,0.1-2,0.2
		c-0.7,0.1-1.3,0.3-1.7,0.5L427.2,94.9z M431.2,103.9c0.6,0,1.1-0.1,1.5-0.4c0.4-0.3,0.6-0.6,0.8-0.9V101c-0.5,0-1-0.1-1.4,0
		c-0.5,0-0.9,0.1-1.2,0.2c-0.4,0.1-0.6,0.3-0.8,0.5s-0.3,0.5-0.3,0.8c0,0.4,0.1,0.8,0.4,1C430.4,103.8,430.7,103.9,431.2,103.9z"/>
	<path fill="#3E3D3E" d="M444.2,103c0-0.3-0.1-0.6-0.4-0.8s-0.6-0.4-1-0.5s-0.8-0.3-1.3-0.5c-0.5-0.2-0.9-0.4-1.3-0.7
		c-0.4-0.3-0.7-0.7-1-1.1s-0.4-1-0.4-1.8c0-1.2,0.4-2.1,1.1-2.7c0.7-0.6,1.7-0.9,3.1-0.9c0.9,0,1.7,0.1,2.5,0.3s1.3,0.4,1.7,0.6
		l-0.7,2.3c-0.4-0.1-0.8-0.3-1.4-0.5c-0.6-0.2-1.1-0.2-1.7-0.2c-0.9,0-1.4,0.4-1.4,1.1c0,0.3,0.1,0.5,0.4,0.7s0.6,0.3,1,0.5
		s0.8,0.3,1.3,0.5c0.5,0.2,0.9,0.4,1.3,0.7c0.4,0.3,0.7,0.6,1,1.1c0.3,0.4,0.4,1,0.4,1.7c0,1.2-0.4,2.2-1.2,2.9s-1.9,1-3.5,1
		c-0.8,0-1.6-0.1-2.4-0.3c-0.7-0.2-1.4-0.5-1.8-0.8l0.9-2.3c0.4,0.2,0.9,0.4,1.5,0.6c0.6,0.2,1.2,0.3,1.9,0.3c0.5,0,0.8-0.1,1.1-0.3
		C444.1,103.7,444.2,103.4,444.2,103z"/>
	<path fill="#3E3D3E" d="M448.1,94.3h1.7V92l3.1-0.9v3.1h2.9v2.6h-2.9v4.6c0,0.8,0.1,1.4,0.3,1.8c0.2,0.4,0.5,0.5,0.9,0.5
		c0.3,0,0.6,0,0.8-0.1c0.2-0.1,0.5-0.2,0.8-0.3l0.6,2.4c-0.4,0.2-0.9,0.4-1.5,0.5s-1.2,0.2-1.8,0.2c-1.1,0-1.9-0.3-2.4-0.9
		c-0.5-0.6-0.8-1.5-0.8-2.8v-6.1h-1.7V94.3z"/>
</g>
</svg>
